<svg width="145" height="42" viewBox="0 0 145 42" fill="none" xmlns="http://www.w3.org/2000/svg">
<path d="M50.2746 2.74255H48.3022V39.2578H50.2746V2.74255Z" fill="#58595B"/>
<path d="M12.853 5.88354H1.76562V37.2945H12.853V5.88354Z" fill="#58595B"/>
<path d="M25.2817 5.88354H14.1943V37.2945H25.2817V5.88354Z" fill="#58595B"/>
<path d="M43.9861 15.7445L44.354 4.70557H43.9861C32.5857 5.12637 28.6373 12.2839 27.2944 16.5291C27.2911 16.541 26.6226 19.0744 26.6226 21.5848V30.6613V37.2942H37.7102V30.6613H43.9861V19.6221H37.7102C37.7102 15.7429 43.9861 15.7445 43.9861 15.7445Z" fill="#F58220"/>
<path d="M55.5737 4.70557H54.6133V12.6233H55.5737V4.70557Z" fill="#58595B"/>
<path d="M61.1414 9.11999C61.6243 9.81838 62.1019 10.5367 62.5731 11.2742H62.6084C62.5572 10.5048 62.5322 9.71976 62.5322 8.91887V4.70557H63.4982V12.6233H62.538L59.4449 8.20885C58.9108 7.43955 58.4337 6.72149 58.0132 6.05497H57.9779C58.0288 6.7769 58.0547 7.61906 58.0547 8.58173V12.6233H57.0942V4.70557H58.0488L61.1414 9.11999Z" fill="#58595B"/>
<path d="M71.3996 8.62886C71.3996 9.09066 71.3428 9.52421 71.2284 9.93061C71.1149 10.337 70.9429 10.703 70.7127 11.0285C70.4831 11.354 70.1964 11.6352 69.8527 11.8717C69.509 12.1083 69.1074 12.2917 68.6479 12.4219C68.3849 12.497 68.0999 12.5491 67.7938 12.5787C67.4876 12.6084 67.1556 12.623 66.798 12.623H65.0132V4.70532H66.8158C67.1732 4.70532 67.5055 4.72028 67.8116 4.74992C68.1183 4.77929 68.4025 4.83165 68.6657 4.90644C69.125 5.03692 69.5268 5.21838 69.8705 5.45108C70.214 5.68406 70.499 5.95887 70.7247 6.27662C70.9507 6.59409 71.1193 6.95118 71.2315 7.34761C71.3439 7.74403 71.3996 8.17121 71.3996 8.62886ZM70.4447 8.62886C70.4447 7.86759 70.2774 7.25009 69.9432 6.77665C69.6089 6.30321 69.1294 5.96801 68.5043 5.77077C68.2655 5.69569 67.9989 5.64444 67.7045 5.61674C67.4097 5.58904 67.0774 5.57546 66.7075 5.57546H65.9731V11.7534H66.7075C67.0774 11.7534 67.4097 11.7396 67.7045 11.7119C67.9989 11.6845 68.2655 11.6329 68.5043 11.5581C69.1294 11.3606 69.6089 11.0154 69.9432 10.5223C70.2777 10.0292 70.4447 9.39816 70.4447 8.62886Z" fill="#58595B"/>
<path d="M79.6723 8.67038C79.6723 9.24826 79.5858 9.77876 79.4152 10.2616C79.2435 10.7448 78.9983 11.1611 78.6782 11.511C78.3587 11.8609 77.9744 12.1335 77.5243 12.3294C77.0743 12.5255 76.5703 12.6233 76.0131 12.6233C75.4365 12.6233 74.9205 12.5255 74.4649 12.3294C74.0087 12.1335 73.623 11.8609 73.3071 11.511C72.9918 11.1611 72.7499 10.7448 72.5824 10.2616C72.4148 9.77876 72.3311 9.24826 72.3311 8.67038C72.3311 8.08807 72.4179 7.55507 72.5913 7.06999C72.7647 6.58519 73.0104 6.16799 73.3277 5.81811C73.6452 5.46822 74.0299 5.19535 74.4816 4.99949C74.9338 4.80363 75.4403 4.70557 76.0014 4.70557C76.5745 4.70557 77.0874 4.80363 77.5413 4.99949C77.9952 5.19535 78.3801 5.46822 78.6957 5.81811C79.0116 6.16799 79.2529 6.58519 79.4205 7.06999C79.588 7.55507 79.6723 8.08807 79.6723 8.67038ZM78.7172 8.67038C78.7172 8.15677 78.6476 7.70438 78.509 7.31267C78.3698 6.92095 78.1784 6.59378 77.9346 6.33144C77.6905 6.06882 77.4024 5.87047 77.0707 5.73528C76.7392 5.60036 76.3824 5.53277 76.0014 5.53277C75.6204 5.53277 75.2639 5.60036 74.9322 5.73528C74.6007 5.87047 74.3129 6.06882 74.0688 6.33144C73.8242 6.59378 73.633 6.92095 73.4938 7.31267C73.3547 7.70438 73.2851 8.15677 73.2851 8.67038C73.2851 9.18371 73.3558 9.63526 73.4966 10.025C73.6374 10.4148 73.8303 10.7409 74.0744 11.0032C74.3185 11.2656 74.6065 11.4636 74.9383 11.5966C75.27 11.7296 75.6282 11.7964 76.0134 11.7964C76.3944 11.7964 76.7495 11.7296 77.0765 11.5966C77.4035 11.4636 77.6902 11.2656 77.9343 11.0032C78.1784 10.7409 78.3696 10.4148 78.5087 10.025C78.6476 9.63526 78.7172 9.18371 78.7172 8.67038Z" fill="#58595B"/>
<path d="M85.0038 9.11999C85.487 9.81838 85.9643 10.5367 86.4357 11.2742H86.4711C86.4204 10.5048 86.3945 9.71976 86.3945 8.91887V4.70557H87.3611V12.6233H86.4006L83.3067 8.20885C82.7729 7.43955 82.2956 6.72149 81.8753 6.05497H81.84C81.8906 6.7769 81.9165 7.61906 81.9165 8.58173V12.6233H80.9561V4.70557H81.9107L85.0038 9.11999Z" fill="#58595B"/>
<path d="M89.8354 11.7534H93.8776V12.6233H88.8755V4.70557H93.6588V5.57543H89.8354V8.13184H93.2355V9.00142H89.8354V11.7534Z" fill="#58595B"/>
<path d="M95.8097 6.86749C95.8097 7.09215 95.857 7.27749 95.9511 7.42376C96.0452 7.5703 96.1712 7.69109 96.3299 7.78583C96.4885 7.88113 96.6728 7.95897 96.882 8.01992C97.0913 8.08086 97.3098 8.13765 97.5372 8.19084C97.8428 8.26315 98.1433 8.34321 98.4389 8.43047C98.7348 8.51801 98.9978 8.6388 99.2288 8.79282C99.4598 8.94685 99.6468 9.14742 99.7904 9.39453C99.9334 9.64191 100.005 9.95938 100.005 10.3472C100.005 10.7428 99.9276 11.0838 99.7726 11.3711C99.6181 11.6581 99.4035 11.8941 99.1305 12.0786C98.8572 12.2631 98.5335 12.4 98.1609 12.4892C97.7874 12.5787 97.3791 12.6233 96.9358 12.6233C96.7315 12.6233 96.5227 12.6108 96.3079 12.5862C96.0942 12.5615 95.8899 12.5283 95.6953 12.4864C95.5013 12.4446 95.3252 12.3969 95.1679 12.3438C95.011 12.2906 94.8874 12.2374 94.7967 12.1839V11.3343C94.938 11.4024 95.0972 11.4653 95.274 11.5224C95.4507 11.5792 95.6333 11.6279 95.822 11.6678C96.0107 11.7077 96.2007 11.739 96.3939 11.7617C96.5856 11.7847 96.7668 11.7964 96.9358 11.7964C97.2102 11.7964 97.4729 11.7734 97.7217 11.7276C97.9716 11.6822 98.1904 11.606 98.3788 11.4997C98.5675 11.393 98.7164 11.2476 98.8266 11.0633C98.936 10.8786 98.9919 10.6478 98.9919 10.3702C98.9919 10.1417 98.9435 9.95384 98.8472 9.80536C98.7503 9.65715 98.622 9.53415 98.4606 9.43719C98.2998 9.34051 98.1144 9.26155 97.904 9.20061C97.6942 9.13994 97.4735 9.08287 97.2413 9.0294C96.9352 8.96098 96.6357 8.88397 96.3427 8.79864C96.0502 8.71276 95.7894 8.5942 95.5595 8.44211C95.3296 8.29002 95.1448 8.09388 95.0057 7.85453C94.866 7.6149 94.7964 7.30879 94.7964 6.93591C94.7964 6.54807 94.8699 6.21453 95.016 5.93474C95.1626 5.65549 95.3611 5.42445 95.6113 5.24189C95.8618 5.05933 96.1501 4.92414 96.476 4.8366C96.8016 4.74934 97.149 4.70557 97.5185 4.70557C97.9382 4.70557 98.3307 4.74463 98.6939 4.82275C99.0576 4.90059 99.3896 5.00226 99.6924 5.12776V5.98903C99.3662 5.85606 99.0292 5.74774 98.6819 5.66408C98.334 5.58042 97.9622 5.53665 97.5653 5.53277C97.267 5.53277 97.0076 5.56407 96.788 5.62668C96.5678 5.68957 96.3853 5.77905 96.24 5.89512C96.0944 6.01092 95.9867 6.15165 95.916 6.31703C95.8456 6.48242 95.8097 6.66581 95.8097 6.86749Z" fill="#58595B"/>
<path d="M102.179 4.70557H101.219V12.6233H102.179V4.70557Z" fill="#58595B"/>
<path d="M102.904 12.6233L106.115 4.70557H106.945L110.157 12.6233H109.113L108.172 10.2384H104.877L103.935 12.6233H102.904ZM106.521 5.9364C106.169 6.92178 105.834 7.81741 105.514 8.62301L105.219 9.36876H107.832L107.533 8.62356C107.209 7.80384 106.88 6.90793 106.545 5.9364H106.521Z" fill="#58595B"/>
<path d="M55.5737 17.1152H54.6133V25.0329H55.5737V17.1152Z" fill="#58595B"/>
<path d="M61.1414 21.5294C61.6243 22.2278 62.1019 22.9461 62.5731 23.6836H62.6084C62.5572 22.9143 62.5322 22.1292 62.5322 21.328V17.115H63.4982V25.0327H62.538L59.4449 20.6183C58.9108 19.8495 58.4337 19.1309 58.0132 18.4644H57.9779C58.0288 19.1863 58.0547 20.0285 58.0547 20.9912V25.0327H57.0942V17.115H58.0488L61.1414 21.5294Z" fill="#58595B"/>
<path d="M65.9734 25.0329H65.0132V17.1152H69.7141V17.9848H65.9734V20.5415H69.2903V21.4111H65.9734V25.0329Z" fill="#58595B"/>
<path d="M71.5767 21.7544V25.0327H70.6162V17.115H72.6585C73.0041 17.115 73.2972 17.128 73.5385 17.1538C73.7803 17.1793 74.0005 17.2197 74.2006 17.2748C74.7497 17.425 75.1697 17.6801 75.4599 18.0414C75.7502 18.4021 75.8952 18.8528 75.8952 19.3933C75.8952 19.7129 75.844 19.9988 75.7419 20.2515C75.6397 20.5039 75.4967 20.723 75.3119 20.9083C75.1271 21.0937 74.9064 21.2455 74.6492 21.3643C74.3921 21.4826 74.1057 21.569 73.792 21.6244V21.6483L76.1251 25.0327H75.1646L72.7369 21.7544H71.5767ZM71.5767 17.9849V20.8845H72.5257C72.8199 20.8845 73.0715 20.8748 73.2796 20.8549C73.4878 20.8357 73.6743 20.7997 73.8396 20.7488C74.1733 20.646 74.4299 20.4823 74.6114 20.2576C74.7917 20.0326 74.8822 19.739 74.8822 19.3761C74.8783 19.0362 74.792 18.763 74.6228 18.5564C74.4538 18.3491 74.2201 18.2001 73.9214 18.1095C73.78 18.066 73.6111 18.0344 73.4149 18.0148C73.2187 17.9951 72.969 17.9851 72.6665 17.9851L71.5767 17.9849Z" fill="#58595B"/>
<path d="M76 24.9177L79.2103 17H80.0408L83.2522 24.9177H82.2091L81.2682 22.5331H77.9724L77.0303 24.9177H76ZM79.6169 18.2308C79.2651 19.2165 78.9292 20.1118 78.6097 20.9174L78.3144 21.6629H80.9275L80.6291 20.918C80.3057 20.0977 79.9757 19.2021 79.6409 18.2308H79.6169Z" fill="#58595B"/>
<path d="M85.2225 19.277C85.2225 19.5016 85.2698 19.6867 85.3633 19.8332C85.458 19.9798 85.584 20.1006 85.7421 20.1956C85.9008 20.2909 86.0856 20.3687 86.2949 20.4297C86.5036 20.4903 86.7226 20.5477 86.9494 20.6006C87.2556 20.6732 87.5562 20.753 87.8517 20.8402C88.1476 20.9278 88.4106 21.0486 88.6416 21.2026C88.8726 21.3569 89.0596 21.5572 89.2032 21.8043C89.3457 22.0517 89.4175 22.3691 89.4175 22.757C89.4175 23.1526 89.3404 23.4936 89.1854 23.7809C89.0304 24.0676 88.8164 24.3039 88.5428 24.4884C88.27 24.6726 87.9464 24.8095 87.5731 24.8987C87.2002 24.9882 86.7919 25.0328 86.3486 25.0328C86.1443 25.0328 85.935 25.0203 85.7207 24.9956C85.5064 24.9707 85.3021 24.9377 85.1081 24.8959C84.9136 24.8541 84.738 24.8064 84.5805 24.7532C84.4238 24.7 84.3005 24.6466 84.2098 24.5934V23.7437C84.3511 23.8119 84.5098 23.8751 84.6871 23.9321C84.8638 23.9889 85.0464 24.0377 85.235 24.0773C85.4237 24.1169 85.6138 24.1485 85.8064 24.1712C85.9987 24.1942 86.1799 24.2058 86.3489 24.2058C86.6233 24.2058 86.8854 24.1826 87.1348 24.1368C87.3842 24.0914 87.6035 24.0155 87.7919 23.9091C87.9803 23.8028 88.1295 23.6573 88.2397 23.4728C88.3491 23.2886 88.4045 23.0576 88.4045 22.7797C88.4045 22.5517 88.356 22.3633 88.2597 22.2151C88.1634 22.0669 88.0346 21.9439 87.8737 21.8472C87.7129 21.75 87.5269 21.6713 87.3171 21.6106C87.1073 21.55 86.886 21.4926 86.6544 21.4394C86.3483 21.371 86.0483 21.294 85.7558 21.2084C85.4633 21.1225 85.2019 21.0042 84.9726 20.8519C84.7422 20.6998 84.5579 20.5039 84.4188 20.2646C84.2791 20.0249 84.2095 19.7188 84.2095 19.3462C84.2095 18.9581 84.2824 18.6248 84.4291 18.345C84.5757 18.0652 84.7742 17.8345 85.0244 17.6516C85.2748 17.4694 85.5626 17.3342 85.8885 17.2466C86.2141 17.1594 86.562 17.1156 86.9316 17.1156C87.3513 17.1156 87.7432 17.1544 88.1064 17.2325C88.4701 17.3106 88.8027 17.4123 89.105 17.5378V18.3991C88.7793 18.2661 88.4423 18.1578 88.095 18.0738C87.7471 17.9905 87.3753 17.9464 86.9784 17.9428C86.68 17.9428 86.4207 17.9741 86.2011 18.037C85.9809 18.0996 85.7978 18.1888 85.6525 18.3049C85.507 18.4212 85.3998 18.5617 85.3286 18.7271C85.2579 18.8922 85.2225 19.0756 85.2225 19.277Z" fill="#58595B"/>
<path d="M93.4596 25.0329H92.4994V17.9848H89.8657V17.1152H96.0929V17.9848H93.4596V25.0329Z" fill="#58595B"/>
<path d="M97.8081 21.7544V25.0327H96.8477V17.115H98.8899C99.235 17.115 99.5286 17.128 99.7694 17.1538C100.011 17.1793 100.231 17.2197 100.432 17.2748C100.981 17.425 101.401 17.6801 101.691 18.0414C101.981 18.4021 102.127 18.8528 102.127 19.3933C102.127 19.7129 102.075 19.9988 101.973 20.2515C101.871 20.5039 101.728 20.723 101.543 20.9083C101.359 21.0937 101.138 21.2455 100.88 21.3643C100.622 21.4826 100.337 21.569 100.023 21.6244V21.6483L102.356 25.0327H101.396L98.9684 21.7544H97.8081ZM97.8081 17.9849V20.8845H98.756C99.0513 20.8845 99.3024 20.8748 99.5105 20.8549C99.7187 20.8357 99.9052 20.7997 100.07 20.7488C100.404 20.646 100.661 20.4823 100.842 20.2576C101.023 20.0326 101.113 19.739 101.113 19.3761C101.109 19.0362 101.023 18.763 100.854 18.5564C100.685 18.3491 100.451 18.2001 100.153 18.1095C100.011 18.066 99.8426 18.0344 99.6458 18.0148C99.4496 17.9951 99.2005 17.9851 98.8974 17.9851L97.8081 17.9849Z" fill="#58595B"/>
<path d="M106.551 24.1908C106.838 24.1908 107.092 24.1581 107.314 24.0919C107.536 24.0265 107.729 23.9331 107.895 23.8129C108.06 23.6932 108.197 23.5489 108.307 23.3802C108.417 23.2118 108.502 23.0251 108.56 22.8198C108.6 22.6921 108.627 22.5497 108.643 22.3929C108.658 22.2361 108.666 22.0843 108.666 21.9369V17.1152H109.627V21.9133C109.627 22.0956 109.617 22.2854 109.597 22.4826C109.578 22.6804 109.546 22.8644 109.503 23.0347C109.428 23.3212 109.316 23.5863 109.167 23.8304C109.018 24.0747 108.824 24.2858 108.584 24.4637C108.344 24.6415 108.056 24.7811 107.72 24.882C107.384 24.9822 106.991 25.0329 106.539 25.0329C106.107 25.0329 105.728 24.9864 105.402 24.8936C105.076 24.8008 104.796 24.6717 104.563 24.5071C104.329 24.3426 104.137 24.1467 103.988 23.9201C103.839 23.6938 103.724 23.4467 103.64 23.1799C103.582 22.9863 103.54 22.7788 103.514 22.558C103.488 22.3372 103.476 22.1225 103.476 21.9133V17.1152H104.436V21.9366C104.436 22.1109 104.449 22.2898 104.474 22.4738C104.5 22.6577 104.54 22.8253 104.596 22.9763C104.733 23.3517 104.961 23.6481 105.282 23.865C105.602 24.0819 106.025 24.1908 106.551 24.1908Z" fill="#58595B"/>
<path d="M114.926 17.9422C114.485 17.9422 114.073 18.0098 113.689 18.1447C113.305 18.2799 112.972 18.4813 112.69 18.7494C112.407 19.0176 112.185 19.3503 112.022 19.7479C111.859 20.1451 111.778 20.6077 111.778 21.1366C111.778 21.6616 111.853 22.117 112.004 22.5029C112.155 22.8893 112.37 23.2085 112.648 23.4611C112.926 23.7141 113.261 23.9016 113.653 24.0232C114.044 24.1448 114.481 24.2058 114.962 24.2058C115.093 24.2058 115.233 24.1988 115.379 24.1858C115.526 24.1725 115.675 24.1534 115.823 24.1288C115.973 24.1038 116.118 24.0756 116.259 24.0432C116.4 24.011 116.526 23.9756 116.638 23.9376V24.759C116.405 24.8463 116.137 24.9139 115.83 24.9612C115.524 25.0089 115.21 25.0327 114.888 25.0327C114.232 25.0327 113.651 24.9446 113.144 24.7676C112.637 24.5906 112.212 24.3365 111.868 24.0058C111.525 23.675 111.264 23.2711 111.087 22.7938C110.911 22.3164 110.823 21.7751 110.823 21.1709C110.823 20.5775 110.916 20.0318 111.102 19.5337C111.289 19.0356 111.558 18.6076 111.909 18.2502C112.261 17.8929 112.687 17.6142 113.188 17.4145C113.689 17.215 114.251 17.115 114.876 17.115C115.041 17.115 115.203 17.1219 115.365 17.1349C115.526 17.1482 115.68 17.1676 115.827 17.1923C115.975 17.2169 116.111 17.2463 116.237 17.2804C116.362 17.3147 116.471 17.351 116.561 17.3887V18.2101C116.322 18.1344 116.062 18.0705 115.779 18.0192C115.497 17.968 115.213 17.9422 114.926 17.9422Z" fill="#58595B"/>
<path d="M120.574 25.0329H119.614V17.9848H116.98V17.1152H123.208V17.9848H120.574V25.0329Z" fill="#58595B"/>
<path d="M127.008 24.1908C127.294 24.1908 127.548 24.1581 127.771 24.0919C127.992 24.0265 128.186 23.9331 128.351 23.8129C128.516 23.6932 128.653 23.5489 128.764 23.3802C128.873 23.2118 128.958 23.0251 129.016 22.8198C129.056 22.6921 129.083 22.5497 129.1 22.3929C129.115 22.2361 129.122 22.0843 129.122 21.9369V17.1152H130.083V21.9133C130.083 22.0956 130.073 22.2854 130.054 22.4826C130.034 22.6804 130.002 22.8644 129.959 23.0347C129.884 23.3212 129.773 23.5863 129.623 23.8304C129.474 24.0747 129.28 24.2858 129.04 24.4637C128.801 24.6418 128.513 24.7811 128.177 24.882C127.841 24.9822 127.447 25.0329 126.996 25.0329C126.563 25.0329 126.185 24.9864 125.858 24.8936C125.532 24.8008 125.253 24.6717 125.019 24.5071C124.786 24.3426 124.594 24.1467 124.444 23.9201C124.295 23.6938 124.18 23.4467 124.097 23.1799C124.038 22.9863 123.996 22.7788 123.97 22.558C123.945 22.3372 123.932 22.1225 123.932 21.9133V17.1152H124.892V21.9366C124.892 22.1109 124.905 22.2898 124.931 22.4738C124.956 22.6577 124.996 22.8253 125.052 22.9763C125.189 23.3517 125.418 23.6481 125.738 23.865C126.058 24.0819 126.481 24.1908 127.008 24.1908Z" fill="#58595B"/>
<path d="M132.535 21.7544V25.0327H131.574V17.115H133.616C133.962 17.115 134.255 17.128 134.496 17.1538C134.737 17.1793 134.958 17.2197 135.159 17.2748C135.708 17.425 136.127 17.6801 136.417 18.0414C136.708 18.4021 136.853 18.8528 136.853 19.3933C136.853 19.7129 136.801 19.9988 136.7 20.2515C136.598 20.5039 136.454 20.723 136.27 20.9083C136.085 21.0937 135.864 21.2455 135.607 21.3643C135.35 21.4826 135.064 21.569 134.749 21.6244V21.6483L137.083 25.0327H136.123L133.695 21.7544H132.535ZM132.535 17.9849V20.8845H133.483C133.778 20.8845 134.029 20.8748 134.237 20.8549C134.445 20.8357 134.632 20.7997 134.797 20.7488C135.131 20.646 135.388 20.4823 135.568 20.2576C135.75 20.0326 135.84 19.739 135.84 19.3761C135.836 19.0362 135.75 18.763 135.58 18.5564C135.412 18.3491 135.178 18.2001 134.879 18.1095C134.737 18.066 134.569 18.0344 134.372 18.0148C134.176 17.9951 133.927 17.9851 133.624 17.9851L132.535 17.9849Z" fill="#58595B"/>
<path d="M139.192 24.1631H143.234V25.0329H138.232V17.1152H143.016V17.9848H139.192V20.5412H142.592V21.4108H139.192V24.1631Z" fill="#58595B"/>
<path d="M55.574 37.2942H54.6133V29.3765H59.3148V30.2463H55.574V32.8027H58.8909V33.6726H55.574V37.2942Z" fill="#58595B"/>
<path d="M61.1768 29.3765H60.2163V37.2942H61.1768V29.3765Z" fill="#58595B"/>
<path d="M66.7449 33.7909C67.2278 34.4893 67.7054 35.2076 68.1769 35.9448H68.2122C68.1607 35.1758 68.1357 34.391 68.1357 33.5895V29.3762H69.1017V37.2939H68.1418L65.0486 32.8798C64.5146 32.1105 64.0373 31.3924 63.6167 30.7256H63.5814C63.6326 31.4476 63.6582 32.2897 63.6582 33.2524V37.2939H62.6978V29.3762H63.6521L66.7449 33.7909Z" fill="#58595B"/>
<path d="M69.8208 37.2942L73.0317 29.3765H73.8622L77.0736 37.2942H76.0305L75.0895 34.9095H71.7932L70.8517 37.2942H69.8208ZM73.4388 30.6076C73.0865 31.5932 72.7506 32.4886 72.4308 33.2942L72.1361 34.0397H74.7488L74.4499 33.2947C74.1266 32.4747 73.7976 31.5791 73.4622 30.6076H73.4388Z" fill="#58595B"/>
<path d="M81.8464 33.7909C82.329 34.4893 82.8063 35.2076 83.2783 35.9448H83.3136C83.2624 35.1758 83.2371 34.391 83.2371 33.5895V29.3762H84.2031V37.2939H83.2429L80.1495 32.8798C79.6152 32.1105 79.1384 31.3924 78.7182 30.7256H78.6828C78.7335 31.4476 78.7588 32.2897 78.7588 33.2524V37.2939H77.7983V29.3762H78.7535L81.8464 33.7909Z" fill="#58595B"/>
<path d="M89.5265 30.2036C89.0851 30.2036 88.6727 30.2712 88.2895 30.4059C87.9051 30.5413 87.5725 30.743 87.2903 31.0112C87.007 31.2793 86.7849 31.612 86.6218 32.0096C86.4587 32.4071 86.3777 32.8697 86.3777 33.3986C86.3777 33.9233 86.4529 34.3787 86.604 34.7649C86.7551 35.1508 86.9697 35.4702 87.248 35.7231C87.5263 35.976 87.8611 36.1636 88.253 36.2849C88.6443 36.4065 89.081 36.4675 89.5613 36.4675C89.693 36.4675 89.8321 36.4608 89.9788 36.4475C90.126 36.4342 90.2746 36.4154 90.4235 36.3905C90.573 36.3658 90.7177 36.3373 90.8588 36.3046C90.9996 36.2727 91.1263 36.2373 91.2376 36.1993V37.0204C91.0055 37.1083 90.7369 37.1756 90.4305 37.2232C90.1238 37.2706 89.8099 37.2944 89.4879 37.2944C88.8324 37.2944 88.2502 37.2063 87.744 37.0293C87.2369 36.8523 86.8116 36.5985 86.4682 36.2678C86.1247 35.9367 85.8642 35.5328 85.6875 35.0558C85.5108 34.5782 85.4229 34.0374 85.4229 33.4327C85.4229 32.8393 85.5158 32.2938 85.7023 31.7954C85.8893 31.2976 86.1579 30.8693 86.5094 30.512C86.8609 30.1546 87.2873 29.8759 87.7879 29.6762C88.2892 29.4764 88.8511 29.3767 89.4756 29.3767C89.6409 29.3767 89.8035 29.3834 89.9649 29.3967C90.1257 29.41 90.2802 29.4291 90.4274 29.4537C90.5747 29.4787 90.7113 29.5077 90.8368 29.5421C90.9623 29.5764 91.0706 29.6125 91.1608 29.6504V30.4718C90.9223 30.3962 90.6612 30.3322 90.379 30.2812C90.0974 30.2294 89.8124 30.2036 89.5265 30.2036Z" fill="#58595B"/>
<path d="M93.3062 36.4246H97.3475V37.2942H92.3457V29.3765H97.1296V30.2463H93.3062V32.8027H96.7057V33.6723H93.3062V36.4246Z" fill="#58595B"/>
</svg>
